HIERARCHY
ROOT Hips
{
 OFFSET 0.000000 0.000000 0.000000
 CHANNELS 6 Xposition Yposition Zposition Yrotation Xrotation Zrotation
 JOINT Chest
 {
  OFFSET 0.000000 9.857222 0.000240
  CHANNELS 3 Yrotation Xrotation Zrotation
  JOINT Chest2
  {
   OFFSET 0.000000 10.876940 -0.000436
   CHANNELS 3 Yrotation Xrotation Zrotation
   JOINT Chest3
   {
    OFFSET 0.000000 9.827798 0.000000
    CHANNELS 3 Yrotation Xrotation Zrotation
    JOINT Chest4
    {
     OFFSET 0.000000 9.827798 0.000000
     CHANNELS 3 Yrotation Xrotation Zrotation
     JOINT Neck
     {
      OFFSET 0.000000 13.831992 0.000000
      CHANNELS 3 Yrotation Xrotation Zrotation
      JOINT Head
      {
       OFFSET 0.000000 9.147643 -0.001036
       CHANNELS 3 Yrotation Xrotation Zrotation
       End Site
       {
        OFFSET 0.000000 17.515799 -0.000541
       }
      }
     }
     JOINT RightCollar
     {
      OFFSET -3.001579 7.717577 0.000000
      CHANNELS 3 Yrotation Xrotation Zrotation
      JOINT RightShoulder
      {
       OFFSET -14.002642 0.000000 0.000000
       CHANNELS 3 Yrotation Xrotation Zrotation
       JOINT RightElbow
       {
        OFFSET -30.053852 0.000000 0.000000
        CHANNELS 3 Yrotation Xrotation Zrotation
        JOINT RightWrist
        {
         OFFSET -24.564923 0.000000 -0.000000
         CHANNELS 3 Yrotation Xrotation Zrotation
         End Site
         {
          OFFSET -18.334355 0.000000 0.000000
         }
        }
       }
      }
     }
     JOINT LeftCollar
     {
      OFFSET 3.001579 7.717577 0.000000
      CHANNELS 3 Yrotation Xrotation Zrotation
      JOINT LeftShoulder
      {
       OFFSET 14.002642 0.000000 0.000000
       CHANNELS 3 Yrotation Xrotation Zrotation
       JOINT LeftElbow
       {
        OFFSET 30.053852 0.000000 0.000000
        CHANNELS 3 Yrotation Xrotation Zrotation
        JOINT LeftWrist
        {
         OFFSET 24.564923 0.000000 -0.000000
         CHANNELS 3 Yrotation Xrotation Zrotation
         End Site
         {
          OFFSET 18.334355 0.000000 0.000000
         }
        }
       }
      }
     }
    }
   }
  }
 }
 JOINT RightHip
 {
  OFFSET -8.003235 -0.001175 -0.000120
  CHANNELS 3 Yrotation Xrotation Zrotation
  JOINT RightKnee
  {
   OFFSET 0.000000 -41.759727 0.000113
   CHANNELS 3 Yrotation Xrotation Zrotation
   JOINT RightAnkle
   {
    OFFSET 0.000000 -40.728748 0.000159
    CHANNELS 3 Yrotation Xrotation Zrotation
    JOINT RightToe
    {
     OFFSET 0.000000 -6.515296 14.732841
     CHANNELS 3 Yrotation Xrotation Zrotation
     End Site
     {
      OFFSET 0.000000 -1.502839 6.412115
     }
    }
   }
  }
 }
 JOINT LeftHip
 {
  OFFSET 8.003235 -0.001175 -0.000120
  CHANNELS 3 Yrotation Xrotation Zrotation
  JOINT LeftKnee
  {
   OFFSET 0.000000 -41.759727 0.000113
   CHANNELS 3 Yrotation Xrotation Zrotation
   JOINT LeftAnkle
   {
    OFFSET 0.000000 -40.728748 0.000159
    CHANNELS 3 Yrotation Xrotation Zrotation
    JOINT LeftToe
    {
     OFFSET 0.000000 -6.515296 14.732841
     CHANNELS 3 Yrotation Xrotation Zrotation
     End Site
     {
      OFFSET 0.000000 -1.502839 6.412115
     }
    }
   }
  }
 }
}
MOTION
Frames: 15
Frame Time: 0.016667
3.814706 90.751892 13.403677 -27.867345 -3.011715 3.404106 0.749980 5.436438 -3.037897 0.235685 2.435700 -1.295571 0.235685 2.435700 -1.295571 0.181904 1.826285 -0.972472 -7.889179 20.758107 3.612617 -15.374996 3.213039 8.836916 9.904194 5.506905 8.809441 47.766613 -8.456783 82.190124 5.963416 26.291026 -2.532861 -5.122995 7.006610 -2.968092 -23.435766 8.698948 -13.028516 -26.584151 9.839297 -53.292285 -23.485855 -40.078946 6.250710 -5.498102 9.550635 5.032242 -4.443065 -2.018566 -4.085443 -1.703441 12.010443 -2.100236 -1.520510 -6.969820 0.607813 0.138422 0.382269 0.161473 -88.394393 -69.164673 97.762675 -153.633856 70.924876 -163.677342 -13.407446 4.843309 -43.708756 0.783423 1.261917 0.207685
4.076753 90.602909 12.548846 -28.427397 -2.643001 3.391525 0.840918 5.474205 -3.134351 0.224308 2.488507 -1.377149 0.224308 2.488507 -1.377149 0.173816 1.865886 -1.033613 -7.669259 20.637535 3.801889 -15.043289 2.989419 9.133635 9.886163 5.798354 8.691293 48.313954 -8.787143 82.356851 7.307763 25.111824 -3.064959 -2.995478 6.840358 -4.809813 -23.022992 8.853511 -12.872721 -26.840254 10.591278 -53.637566 -27.666538 -42.028340 11.022462 -7.146130 10.112621 5.042810 -4.408542 -3.476601 -3.579935 -2.442403 12.879312 -2.796563 -1.044385 -7.090243 0.602284 0.073915 0.532425 0.178468 -99.092787 -66.199372 109.819527 -153.889918 67.783377 -163.520251 -14.229724 5.291765 -44.705199 0.440662 1.355003 -0.887921
4.418870 90.444554 11.798388 -29.065912 -2.260015 3.353068 0.839990 5.549936 -3.277300 0.241449 2.550434 -1.463160 0.241449 2.550434 -1.463160 0.187168 1.912261 -1.098197 -7.435769 20.400741 4.005547 -14.704211 2.551440 9.467363 10.131590 5.953210 8.754274 48.718671 -9.158369 82.911619 9.048705 22.957655 -4.323733 -0.288692 6.955948 -7.386759 -22.633510 9.190952 -12.789515 -26.735140 10.899918 -54.308758 -32.211916 -41.924144 16.228318 -8.135582 9.324701 5.308325 -4.075227 -4.878763 -3.231516 -3.425307 13.676788 -3.394341 -0.481946 -7.213154 0.646399 -0.079396 0.690340 0.166955 -106.463556 -62.345136 118.701544 -153.228226 64.736741 -162.811501 -14.872520 5.950504 -45.353023 0.107125 1.256050 -1.938183
4.896068 90.280824 11.154971 -29.518514 -1.876897 3.413806 0.668074 5.593026 -3.570549 0.245340 2.638914 -1.550912 0.245340 2.638914 -1.550912 0.190675 1.978578 -1.164038 -7.206618 20.083467 4.186282 -14.376222 1.961697 9.770762 10.527489 6.287898 8.987053 49.418947 -9.244656 83.310417 11.832358 18.661487 -5.415256 1.614306 7.970776 -10.873886 -22.383856 9.684624 -12.816925 -26.068843 11.143027 -54.878666 -37.831583 -42.019845 21.446642 -8.667350 8.727680 5.295850 -3.867881 -6.528283 -3.239861 -4.161100 14.994085 -3.813618 -0.097968 -7.532551 0.751468 -0.274834 0.765558 0.149866 -111.801717 -58.578318 125.331588 -152.330276 62.175929 -161.892652 -15.332060 6.880184 -45.809590 -0.149450 1.096404 -2.772912
5.343706 90.096971 10.585034 -29.853474 -1.562430 3.372848 0.482285 5.742697 -3.699952 0.225203 2.675825 -1.649884 0.225203 2.675825 -1.649884 0.176101 2.006279 -1.238175 -7.004276 19.762457 4.291476 -14.076107 1.356885 9.944769 11.060025 6.712376 9.395120 49.183743 -8.846313 82.958195 15.627982 15.602931 -6.983069 2.440900 7.661117 -13.280265 -22.173058 10.183941 -12.929419 -25.248117 11.418508 -55.590791 -44.454120 -42.186373 27.157787 -9.045397 9.247017 4.802943 -4.000821 -8.156658 -3.039726 -4.251409 16.537216 -4.314678 -0.283529 -7.938910 0.842236 -0.256167 0.754687 0.230651 -115.518965 -54.811211 130.073189 -151.642389 59.918753 -161.060279 -15.859296 7.665262 -46.293054 -0.361785 0.918005 -3.405080
5.788256 89.906880 10.073159 -30.228408 -1.511167 3.462095 0.340648 5.886906 -3.866798 0.231965 2.736621 -1.746334 0.231965 2.736621 -1.746334 0.181768 2.051823 -1.310541 -6.845059 19.500117 4.299831 -13.819208 0.851466 9.947207 11.647706 6.803713 9.903841 47.169502 -8.581101 82.991865 18.273778 15.218165 -8.511110 3.185542 7.667097 -15.194314 -22.088188 10.675954 -13.124217 -24.598526 11.707233 -56.526480 -49.771122 -40.408058 31.644545 -9.239345 9.012469 4.384943 -4.435607 -9.464457 -2.895354 -3.821810 17.994579 -4.773357 -0.542326 -8.382711 0.871222 -0.174589 0.792948 0.328714 -117.947864 -51.611601 133.272685 -150.903306 58.049083 -160.213555 -16.310891 8.607234 -46.640348 -0.588597 0.573443 -3.892742
6.194882 89.722882 9.572797 -30.470620 -1.408266 3.551075 0.219670 5.886457 -3.941551 0.219493 2.749989 -1.810261 0.219493 2.749989 -1.810261 0.172741 2.061864 -1.358424 -6.735470 19.328891 4.196636 -13.608322 0.504415 9.749085 12.166404 6.428325 10.380887 44.549019 -8.244551 83.685367 19.907217 16.648159 -9.592161 3.572266 8.357731 -16.771990 -21.885632 11.063263 -13.265341 -23.652706 11.844173 -57.346087 -53.442632 -37.579452 34.000748 -9.401162 8.637220 4.193137 -4.984271 -10.657633 -2.761479 -3.703178 19.151203 -5.231131 -0.522281 -8.743523 0.832299 -0.080359 0.851467 0.426862 -119.942149 -49.079632 135.776565 -150.546435 56.678924 -159.553012 -16.983079 9.537394 -46.828595 -0.706796 0.115441 -4.201768
6.549608 89.552992 9.101205 -30.627129 -1.318701 3.655346 0.109239 5.822773 -3.901884 0.203961 2.703243 -1.843860 0.203961 2.703243 -1.843860 0.161105 2.026840 -1.383541 -6.673073 19.288968 3.969534 -13.430427 0.388320 9.322405 12.347002 6.227238 10.638751 42.252733 -7.849334 84.340128 21.184648 18.926241 -10.106181 3.766394 8.740244 -17.551553 -21.716701 11.461766 -13.487366 -22.092749 11.625258 -57.827148 -56.049483 -34.628021 34.857396 -9.531489 8.453248 4.095926 -5.411294 -11.583851 -2.715660 -4.152944 19.874916 -5.698537 -0.223539 -9.055963 0.794919 -0.038643 1.009668 0.466287 -121.381501 -47.193331 137.472468 -150.557548 55.741279 -159.275546 -17.532382 10.364297 -46.768968 -0.753175 -0.277759 -4.356253
6.837935 89.425966 8.704099 -30.659346 -1.298261 3.851914 -0.068431 5.773736 -3.872840 0.184687 2.622212 -1.846938 0.184687 2.622212 -1.846938 0.146422 1.966122 -1.385754 -6.626616 19.386477 3.678400 -13.246961 0.519870 8.766872 12.266254 5.924816 10.702707 40.101223 -7.332707 84.797908 22.338622 21.195141 -10.200424 4.343350 8.569210 -17.519503 -21.572168 11.861161 -13.791400 -21.016873 11.400095 -58.324430 -58.145816 -32.000753 35.705446 -9.634535 8.184539 4.156906 -5.556184 -12.190415 -2.814030 -4.384556 20.344068 -6.008209 -0.323037 -9.343375 0.846921 -0.030758 1.193647 0.428196 -122.385239 -46.286818 138.400520 -151.040873 55.314019 -159.474844 -17.812708 10.984327 -46.274607 -0.756631 -0.520913 -4.389842
7.012124 89.353898 8.422729 -30.513345 -1.325524 4.068245 -0.379089 5.807971 -3.865559 0.151747 2.524514 -1.822206 0.151747 2.524514 -1.822206 0.121324 1.892953 -1.367061 -6.574321 19.547771 3.405425 -13.052451 0.772512 8.235536 11.947043 5.271772 10.597528 38.627631 -6.590535 85.227753 23.638868 22.068138 -10.138301 4.965355 8.353784 -17.383990 -21.329065 12.023926 -14.040170 -20.782387 11.502344 -58.886744 -60.202532 -30.407343 37.146874 -9.730249 8.032777 4.306439 -5.548104 -12.527476 -2.932408 -3.838973 20.737316 -6.016650 -1.013249 -9.683249 0.921181 -0.027014 1.376148 0.352192 -123.183266 -46.493278 138.758236 -152.104216 55.341791 -160.042509 -17.940519 11.252311 -45.432495 -0.702835 -0.673058 -4.230184
7.043410 89.335237 8.198914 -30.458546 -1.402133 4.212471 -0.572536 5.903381 -3.845150 0.133227 2.463083 -1.776581 0.133227 2.463083 -1.776581 0.107070 1.846944 -1.332768 -6.533840 19.664216 3.206417 -12.907194 0.955244 7.848164 11.451037 4.551086 10.450786 38.030165 -5.991287 85.651590 24.823622 21.615019 -9.896729 5.363442 8.596260 -17.833172 -21.017729 11.834594 -14.131259 -20.929368 11.831246 -59.422381 -62.246424 -29.676363 38.864827 -9.862457 7.988546 4.345640 -5.258982 -12.607837 -2.955579 -3.463890 20.891564 -5.977179 -1.612352 -9.853538 0.880609 0.065006 1.444786 0.311823 -123.403294 -47.591599 138.526034 -153.367877 55.622902 -160.763501 -17.823677 11.244845 -44.350997 -0.652280 -0.817163 -3.838742
6.974226 89.371207 8.022557 -30.360184 -1.517593 4.289879 -0.679924 5.990276 -3.792281 0.084505 2.444533 -1.711096 0.084505 2.444533 -1.711096 0.070217 1.833180 -1.283466 -6.511154 19.712343 3.058291 -12.816690 1.021459 7.566730 10.835048 3.855825 10.299847 38.305368 -5.748327 86.518404 25.160063 20.917131 -10.277851 5.562948 8.956451 -18.540428 -20.738714 11.714614 -14.250165 -20.533949 11.685358 -59.707175 -64.055894 -29.030009 39.946940 -9.933196 8.292700 4.330596 -5.005093 -12.466758 -2.916154 -3.316643 20.799189 -5.947862 -1.841250 -9.839115 0.804825 0.105413 1.378189 0.247841 -123.144212 -49.412622 137.736946 -154.671723 56.175621 -161.579197 -17.691320 11.141425 -43.153676 -0.598026 -1.096106 -3.258276
6.832824 89.458212 7.926253 -30.225087 -1.673310 4.315812 -0.784916 6.062100 -3.700432 0.027550 2.442979 -1.641500 0.027550 2.442979 -1.641500 0.027225 1.832176 -1.231048 -6.496188 19.710830 2.937927 -12.753357 1.000899 7.343728 10.404392 3.503427 10.223819 39.052269 -5.922171 87.504651 24.839306 20.318456 -11.515095 5.719665 9.248688 -18.697314 -20.491692 11.685068 -14.383686 -19.413637 11.136993 -59.715591 -64.818211 -27.839739 39.737299 -10.094083 8.137328 4.453253 -4.907050 -12.117721 -2.837021 -3.023605 20.509787 -5.849250 -1.991315 -9.708976 0.747942 0.087551 1.231806 0.154478 -122.285577 -51.692867 136.312329 -155.938158 56.940980 -162.574096 -17.448777 11.102288 -41.876767 -0.563116 -1.488583 -2.571287
6.630425 89.586166 7.925559 -30.179433 -1.853528 4.268866 -0.815138 6.143076 -3.517481 -0.015108 2.457205 -1.570022 -0.015108 2.457205 -1.570022 -0.005013 1.842957 -1.177275 -6.494157 19.663890 2.821797 -12.718984 0.898667 7.137319 10.220900 3.209236 10.203341 39.333782 -6.023616 88.069756 24.665982 20.227852 -12.384837 5.902245 9.331937 -18.485017 -20.238122 11.590795 -14.475055 -18.625948 10.665425 -59.818713 -65.457162 -26.902924 39.665366 -10.173931 8.172964 4.524081 -4.751104 -11.559483 -2.692437 -2.509968 20.020267 -5.680438 -2.219702 -9.468675 0.742188 0.011601 1.029173 0.032791 -120.676861 -54.192502 134.297819 -157.250761 57.851508 -163.788765 -17.270311 11.174175 -40.611097 -0.575318 -1.997204 -1.830763
6.359189 89.742512 8.040158 -30.067553 -2.093380 4.234507 -0.858784 6.262778 -3.328024 -0.045097 2.492275 -1.501388 -0.045097 2.492275 -1.501388 -0.027691 1.869331 -1.125679 -6.521943 19.584614 2.716153 -12.744889 0.741615 6.962390 10.044406 2.820859 10.183811 39.069518 -5.977755 88.211231 24.908885 20.560543 -12.296501 5.984717 9.252612 -18.237845 -20.066854 11.440632 -14.508218 -18.435297 10.381567 -60.126450 -66.260977 -26.380982 40.141279 -10.202927 8.200956 4.482072 -4.625258 -10.850966 -2.624439 -1.671679 19.569783 -5.280851 -2.639409 -9.271023 0.681839 -0.001408 0.770747 -0.084551 -118.473696 -56.776360 131.632007 -158.054407 58.811116 -164.935799 -16.672760 11.439358 -39.385531 -0.692299 -2.488957 -1.021578
